<svg width="512" height="311" viewBox="0 0 512 311" fill="none" xmlns="http://www.w3.org/2000/svg">
<mask id="mask0_103_40" style="mask-type:alpha" maskUnits="userSpaceOnUse" x="0" y="0" width="512" height="311">
<path d="M0 168.128C0 175.238 3.63137 181.856 9.62874 185.675L130.991 262.961C137.396 267.04 145.515 267.304 152.173 263.651C158.83 259.998 162.968 253.007 162.968 245.413V206.167C162.968 198.92 159.197 192.195 153.013 188.416L98.8189 155.298L153.013 122.179C159.197 118.4 162.968 111.675 162.968 104.428V65.1817C162.968 57.5878 158.83 50.5972 152.173 46.944C145.515 43.2909 137.396 43.5555 130.991 47.6346L9.62875 124.92C3.63137 128.739 0 135.357 0 142.467V168.128Z" fill="white"/>
<path d="M330.306 27.1812C332.345 20.8516 331.235 13.9287 327.32 8.55397C323.404 3.17906 317.155 0 310.505 0H278.202C269.17 0 261.17 5.82799 258.401 14.4249L171.757 283.414C169.718 289.744 170.828 296.666 174.744 302.041C178.659 307.416 184.908 310.595 191.558 310.595H223.861C232.893 310.595 240.893 304.767 243.662 296.17L330.306 27.1812Z" fill="white"/>
<path d="M381.009 47.6346C374.604 43.5555 366.485 43.2909 359.827 46.944C353.17 50.5972 349.032 57.5878 349.032 65.1817V104.428C349.032 111.675 352.803 118.4 358.987 122.179L413.181 155.298L358.987 188.416C352.803 192.195 349.032 198.92 349.032 206.167V245.715C349.032 253.323 353.184 260.323 359.859 263.971C366.535 267.618 374.669 267.332 381.071 263.223L502.433 185.334C508.395 181.508 512 174.91 512 167.826V142.467C512 135.357 508.369 128.739 502.371 124.92L381.009 47.6346Z" fill="white"/>
</mask>
<g mask="url(#mask0_103_40)">
<rect x="-85.3623" y="-192.658" width="693.435" height="693.435" rx="346.717" fill="url(#paint0_angular_103_40)"/>
<rect x="-85.3623" y="-192.658" width="693.435" height="693.435" rx="346.717" fill="#333F5B" fill-opacity="0.32"/>
<path d="M13.8682 168.128C13.8682 170.498 15.0786 172.704 17.0777 173.977L138.44 251.263C140.575 252.622 143.281 252.71 145.501 251.493C147.72 250.275 149.099 247.945 149.099 245.413V206.167C149.099 203.751 147.842 201.51 145.781 200.25L72.2219 155.298L145.781 110.345C147.842 109.085 149.099 106.844 149.099 104.428V65.1817C149.099 62.6504 147.72 60.3202 145.501 59.1024C143.281 57.8847 140.575 57.9729 138.44 59.3326L17.0777 136.618C15.0786 137.891 13.8682 140.097 13.8682 142.467V168.128Z" fill="#1A2643" fill-opacity="0.83"/>
<path d="M184.957 287.666C184.278 289.776 184.648 292.084 185.953 293.875C187.258 295.667 189.341 296.726 191.558 296.726H223.861C226.871 296.726 229.538 294.784 230.461 291.918L317.105 22.929C317.785 20.8192 317.415 18.5116 316.109 16.72C314.804 14.9283 312.721 13.8687 310.505 13.8687H278.202C275.191 13.8687 272.524 15.8113 271.601 18.6769L184.957 287.666Z" fill="#1A2643" fill-opacity="0.83"/>
<path d="M366.218 200.25C364.157 201.51 362.9 203.751 362.9 206.167V245.715C362.9 248.251 364.284 250.585 366.509 251.8C368.734 253.016 371.446 252.921 373.58 251.551L494.942 173.662C496.929 172.387 498.131 170.188 498.131 167.826V142.467C498.131 140.097 496.92 137.891 494.921 136.618L373.559 59.3326C371.424 57.9729 368.718 57.8847 366.498 59.1024C364.279 60.3202 362.9 62.6504 362.9 65.1817V104.428C362.9 106.844 364.157 109.085 366.218 110.345L439.777 155.298L366.218 200.25Z" fill="#1A2643" fill-opacity="0.83"/>
<path d="M13.353 179.826L17.0657 173.996L13.353 179.826L134.715 257.112C138.985 259.831 144.398 260.007 148.836 257.572C153.275 255.136 156.033 250.476 156.033 245.413V206.167C156.033 201.336 153.519 196.852 149.397 194.333L85.5201 155.298L149.396 116.262C153.519 113.743 156.033 109.259 156.033 104.428V65.1817C156.033 60.119 153.275 55.4587 148.836 53.0232L145.552 59.0092L148.836 53.0232C144.398 50.5878 138.985 50.7642 134.715 53.4836L13.353 130.769L17.0777 136.618L13.353 130.769C9.35474 133.315 6.93382 137.727 6.93382 142.467V168.128C6.93382 172.868 9.35474 177.28 13.353 179.826ZM363.163 53.0232L366.498 59.1024L363.162 53.0232C358.724 55.4587 355.966 60.119 355.966 65.1817V104.428C355.966 109.26 358.48 113.743 362.602 116.262L426.479 155.298L362.602 194.333C358.48 196.852 355.966 201.336 355.966 206.167V245.715C355.966 250.787 358.734 255.454 363.184 257.886C367.634 260.317 373.057 260.126 377.325 257.387L498.687 179.498C502.662 176.947 505.065 172.549 505.065 167.826V142.467C505.065 137.727 502.644 133.315 498.646 130.769L377.284 53.4836C373.014 50.7642 367.601 50.5878 363.163 53.0232ZM178.357 285.54C176.998 289.76 177.738 294.375 180.348 297.958C182.958 301.541 187.124 303.661 191.558 303.661H223.861C229.882 303.661 235.215 299.776 237.061 294.044L323.705 25.0551C325.065 20.8354 324.325 16.2201 321.714 12.6369C319.104 9.05367 314.938 6.93431 310.505 6.93431H278.202C272.18 6.93431 266.847 10.8196 265.001 16.5509L178.357 285.54Z" stroke="#333F5B" stroke-opacity="0.32" stroke-width="13.8687"/>
</g>
<defs>
<radialGradient id="paint0_angular_103_40" cx="0" cy="0" r="1" gradientUnits="userSpaceOnUse" gradientTransform="translate(-16.0188 -314.009) rotate(-172.104) scale(479.549 1448.62)">
<stop offset="0.117033" stop-color="#FF4D00"/>
<stop offset="0.225768" stop-color="#FFD600"/>
<stop offset="0.35132" stop-color="#9AE200"/>
<stop offset="0.503052" stop-color="#00FF38"/>
<stop offset="0.515501" stop-color="#00ADC5"/>
<stop offset="0.601077" stop-color="#0B23FF"/>
<stop offset="0.768383" stop-color="#AE01FF"/>
<stop offset="0.884173" stop-color="#FF00C7"/>
<stop offset="0.952837" stop-color="#FF008A"/>
<stop offset="0.998265" stop-color="#FF0000"/>
</radialGradient>
</defs>
</svg>
