<svg width="512" height="311" viewBox="0 0 512 311" fill="none" xmlns="http://www.w3.org/2000/svg">
<mask id="mask0_101_32" style="mask-type:alpha" maskUnits="userSpaceOnUse" x="0" y="0" width="512" height="311">
<path d="M0 168.128C0 175.238 3.63137 181.856 9.62874 185.675L130.991 262.961C137.396 267.04 145.515 267.304 152.173 263.651C158.83 259.998 162.968 253.007 162.968 245.413V206.167C162.968 198.92 159.197 192.195 153.013 188.416L98.8189 155.298L153.013 122.179C159.197 118.4 162.968 111.675 162.968 104.428V65.1817C162.968 57.5878 158.83 50.5972 152.173 46.944C145.515 43.2909 137.396 43.5555 130.991 47.6346L9.62875 124.92C3.63137 128.739 0 135.357 0 142.467V168.128Z" fill="white"/>
<path d="M330.306 27.1812C332.345 20.8516 331.235 13.9287 327.32 8.55397C323.404 3.17906 317.155 0 310.505 0H278.202C269.17 0 261.17 5.82799 258.401 14.4249L171.757 283.414C169.718 289.744 170.828 296.666 174.744 302.041C178.659 307.416 184.908 310.595 191.558 310.595H223.861C232.893 310.595 240.893 304.767 243.662 296.17L330.306 27.1812Z" fill="white"/>
<path d="M381.009 47.6346C374.604 43.5555 366.485 43.2909 359.827 46.944C353.17 50.5972 349.032 57.5878 349.032 65.1817V104.428C349.032 111.675 352.803 118.4 358.987 122.179L413.181 155.298L358.987 188.416C352.803 192.195 349.032 198.92 349.032 206.167V245.715C349.032 253.323 353.184 260.323 359.859 263.971C366.535 267.618 374.669 267.332 381.071 263.223L502.433 185.334C508.395 181.508 512 174.91 512 167.826V142.467C512 135.357 508.369 128.739 502.371 124.92L381.009 47.6346Z" fill="white"/>
</mask>
<g mask="url(#mask0_101_32)">
<rect x="-85.3623" y="-192.658" width="693.435" height="693.435" rx="346.717" fill="url(#paint0_angular_101_32)"/>
<rect x="-85.3623" y="-192.658" width="693.435" height="693.435" rx="346.717" fill="white" fill-opacity="0.4"/>
<path d="M13.8679 168.128C13.8679 170.498 15.0784 172.704 17.0775 173.977L138.44 251.263C140.575 252.622 143.281 252.71 145.5 251.493C147.719 250.275 149.099 247.945 149.099 245.413V206.167C149.099 203.751 147.842 201.51 145.78 200.25L72.2217 155.298L145.78 110.345C147.842 109.085 149.099 106.844 149.099 104.428V65.1817C149.099 62.6504 147.719 60.3202 145.5 59.1025C143.281 57.8847 140.575 57.973 138.44 59.3327L17.0775 136.618C15.0784 137.891 13.8679 140.097 13.8679 142.467V168.128Z" fill="white"/>
<path d="M184.957 287.666C184.277 289.776 184.647 292.084 185.953 293.875C187.258 295.667 189.341 296.727 191.557 296.727H223.86C226.871 296.727 229.538 294.784 230.461 291.918L317.105 22.9291C317.784 20.8192 317.414 18.5116 316.109 16.72C314.804 14.9284 312.721 13.8687 310.504 13.8687H278.202C275.191 13.8687 272.524 15.8113 271.601 18.677L184.957 287.666Z" fill="white"/>
<path d="M366.218 200.25C364.157 201.51 362.9 203.751 362.9 206.167V245.715C362.9 248.251 364.284 250.585 366.509 251.8C368.734 253.016 371.445 252.921 373.579 251.551L494.942 173.662C496.929 172.387 498.13 170.188 498.13 167.826V142.467C498.13 140.097 496.92 137.891 494.921 136.618L373.559 59.3327C371.424 57.973 368.717 57.8847 366.498 59.1025C364.279 60.3202 362.9 62.6504 362.9 65.1817V104.428C362.9 106.844 364.157 109.085 366.218 110.345L439.777 155.298L366.218 200.25Z" fill="white"/>
<path d="M13.3527 179.826L17.0655 173.996L13.3527 179.826L134.715 257.112C138.985 259.831 144.398 260.007 148.836 257.572C153.275 255.136 156.033 250.476 156.033 245.413V206.167C156.033 201.336 153.519 196.852 149.396 194.333L85.5199 155.298L149.396 116.262C153.519 113.743 156.033 109.26 156.033 104.428V65.1817C156.033 60.1191 153.275 55.4587 148.836 53.0232L145.552 59.0092L148.836 53.0232C144.398 50.5878 138.985 50.7642 134.715 53.4836L13.3527 130.769L17.0775 136.618L13.3527 130.769C9.35449 133.315 6.93357 137.727 6.93357 142.467V168.128C6.93357 172.868 9.35449 177.28 13.3527 179.826ZM363.162 53.0232L366.498 59.1025L363.162 53.0232C358.724 55.4587 355.965 60.1191 355.965 65.1817V104.428C355.965 109.26 358.48 113.743 362.602 116.262L426.479 155.298L362.602 194.333C358.48 196.852 355.965 201.336 355.965 206.167V245.715C355.965 250.787 358.733 255.454 363.184 257.886C367.634 260.317 373.057 260.126 377.325 257.387L498.687 179.498C502.662 176.947 505.065 172.549 505.065 167.826V142.467C505.065 137.727 502.644 133.315 498.646 130.769L377.284 53.4836C373.013 50.7642 367.601 50.5878 363.162 53.0232ZM178.357 285.54C176.997 289.76 177.737 294.375 180.348 297.958C182.958 301.541 187.124 303.661 191.557 303.661H223.86C229.882 303.661 235.215 299.776 237.061 294.044L323.705 25.0551C325.064 20.8354 324.324 16.2202 321.714 12.637C319.104 9.0537 314.938 6.93434 310.504 6.93434H278.202C272.18 6.93434 266.847 10.8197 265.001 16.5509L178.357 285.54Z" stroke="white" stroke-opacity="0.4" stroke-width="13.8687"/>
<mask id="mask1_101_32" style="mask-type:alpha" maskUnits="userSpaceOnUse" x="0" y="0" width="513" height="311">
<path d="M0.000244141 168.128C0.000244141 175.238 3.63162 181.856 9.62898 185.675L130.991 262.961C137.397 267.04 145.516 267.304 152.173 263.651C158.831 259.998 162.969 253.007 162.969 245.413V206.167C162.969 198.92 159.197 192.195 153.013 188.416L98.8191 155.298L153.013 122.179C159.197 118.4 162.969 111.675 162.969 104.428V65.1817C162.969 57.5878 158.831 50.5972 152.173 46.944C145.516 43.2909 137.397 43.5555 130.991 47.6346L9.629 124.92C3.63162 128.739 0.000244141 135.357 0.000244141 142.467V168.128Z" fill="white"/>
<path d="M330.307 27.1812C332.345 20.8516 331.235 13.9287 327.32 8.55397C323.404 3.17906 317.155 0 310.505 0H278.203C269.171 0 261.171 5.82799 258.401 14.4249L171.757 283.414C169.718 289.744 170.829 296.666 174.744 302.041C178.66 307.416 184.909 310.595 191.558 310.595H223.861C232.893 310.595 240.893 304.767 243.662 296.17L330.307 27.1812Z" fill="white"/>
<path d="M381.009 47.6346C374.604 43.5555 366.485 43.2909 359.827 46.944C353.17 50.5972 349.032 57.5878 349.032 65.1817V104.428C349.032 111.675 352.804 118.4 358.987 122.179L413.181 155.298L358.987 188.416C352.804 192.195 349.032 198.92 349.032 206.167V245.715C349.032 253.323 353.184 260.323 359.86 263.971C366.535 267.618 374.669 267.332 381.071 263.223L502.433 185.334C508.395 181.508 512 174.91 512 167.826V142.467C512 135.357 508.369 128.739 502.372 124.92L381.009 47.6346Z" fill="white"/>
</mask>
<g mask="url(#mask1_101_32)">
<g filter="url(#filter0_d_101_32)">
<path d="M13.8687 168.128C13.8687 170.498 15.0791 172.704 17.0782 173.977L138.44 251.263C140.576 252.622 143.282 252.71 145.501 251.493C147.72 250.275 149.1 247.945 149.1 245.413V206.167C149.1 203.751 147.842 201.51 145.781 200.25L72.2224 155.298L145.781 110.345C147.842 109.085 149.1 106.844 149.1 104.428V65.1817C149.1 62.6504 147.72 60.3202 145.501 59.1025C143.282 57.8847 140.576 57.973 138.44 59.3327L17.0782 136.618C15.0791 137.891 13.8687 140.097 13.8687 142.467V168.128Z" fill="white"/>
<path d="M184.958 287.666C184.278 289.776 184.648 292.084 185.953 293.875C187.259 295.667 189.342 296.727 191.558 296.727H223.861C226.872 296.727 229.538 294.784 230.461 291.918L317.106 22.9291C317.785 20.8192 317.415 18.5116 316.11 16.72C314.805 14.9284 312.722 13.8687 310.505 13.8687H278.202C275.192 13.8687 272.525 15.8113 271.602 18.677L184.958 287.666Z" fill="white"/>
<path d="M366.219 200.25C364.158 201.51 362.9 203.751 362.9 206.167V245.715C362.9 248.251 364.284 250.585 366.51 251.8C368.735 253.016 371.446 252.921 373.58 251.551L494.942 173.662C496.93 172.387 498.131 170.188 498.131 167.826V142.467C498.131 140.097 496.921 137.891 494.922 136.618L373.56 59.3327C371.424 57.973 368.718 57.8847 366.499 59.1025C364.28 60.3202 362.9 62.6504 362.9 65.1817V104.428C362.9 106.844 364.158 109.085 366.219 110.345L439.777 155.298L366.219 200.25Z" fill="white"/>
</g>
</g>
</g>
<defs>
<filter id="filter0_d_101_32" x="-13.8687" y="13.8687" width="539.737" height="338.333" filterUnits="userSpaceOnUse" color-interpolation-filters="sRGB">
<feFlood flood-opacity="0" result="BackgroundImageFix"/>
<feColorMatrix in="SourceAlpha" type="matrix" values="0 0 0 0 0 0 0 0 0 0 0 0 0 0 0 0 0 0 127 0" result="hardAlpha"/>
<feOffset dy="27.7374"/>
<feGaussianBlur stdDeviation="13.8687"/>
<feComposite in2="hardAlpha" operator="out"/>
<feColorMatrix type="matrix" values="0 0 0 0 0 0 0 0 0 0 0 0 0 0 0 0 0 0 0.16 0"/>
<feBlend mode="normal" in2="BackgroundImageFix" result="effect1_dropShadow_101_32"/>
<feBlend mode="normal" in="SourceGraphic" in2="effect1_dropShadow_101_32" result="shape"/>
</filter>
<radialGradient id="paint0_angular_101_32" cx="0" cy="0" r="1" gradientUnits="userSpaceOnUse" gradientTransform="translate(-16.0188 -314.009) rotate(-172.104) scale(479.549 1448.62)">
<stop offset="0.117033" stop-color="#FF4D00"/>
<stop offset="0.225768" stop-color="#FFD600"/>
<stop offset="0.35132" stop-color="#9AE200"/>
<stop offset="0.503052" stop-color="#00FF38"/>
<stop offset="0.515501" stop-color="#00ADC5"/>
<stop offset="0.601077" stop-color="#0B23FF"/>
<stop offset="0.768383" stop-color="#AE01FF"/>
<stop offset="0.884173" stop-color="#FF00C7"/>
<stop offset="0.952837" stop-color="#FF008A"/>
<stop offset="0.998265" stop-color="#FF0000"/>
</radialGradient>
</defs>
</svg>
